M48
; DRILL file {KiCad 9.0.1} date 2026-01-25T19:31:24-0500
; FORMAT={-:-/ absolute / inch / decimal}
; #@! TF.CreationDate,2026-01-25T19:31:24-05:00
; #@! TF.GenerationSoftware,Kicad,Pcbnew,9.0.1
; #@! TF.FileFunction,Plated,1,2,PTH
FMAT,2
INCH
; #@! TA.AperFunction,Plated,PTH,ViaDrill
T1C0.0118
; #@! TA.AperFunction,Plated,PTH,ViaDrill
T2C0.0157
; #@! TA.AperFunction,Plated,PTH,ViaDrill
T3C0.0315
; #@! TA.AperFunction,Plated,PTH,ComponentDrill
T4C0.0394
%
G90
G05
T1
X0.2421Y0.6356
X0.2854Y0.7419
X0.2933Y0.86
X0.3209Y0.7419
X0.3366Y0.8285
X0.3366Y0.7695
X0.3839Y0.86
X1.1102Y1.5669
X1.9555Y1.5602
X1.9555Y0.9262
X2.0555Y1.5602
X2.0555Y0.9262
X2.1555Y1.5602
X2.1555Y0.9262
X2.2555Y1.5602
X2.2555Y0.9262
X2.3555Y1.5602
X2.3555Y0.9262
X2.4555Y1.5602
X2.4555Y0.9262
X2.5555Y1.5602
X2.5555Y0.9262
X2.6555Y1.5602
X2.6555Y0.9262
T2
X0.1398Y0.6533
X0.1476Y0.5254
X0.2894Y0.9289
X0.561Y0.862
X0.561Y0.7478
X0.561Y0.551
X2.0866Y0.1535
T3
X0.2008Y1.0276
X0.498Y0.4173
T4
X0.1417Y2.4193
X0.1417Y2.3193
X0.1417Y2.2193
X0.1417Y2.1193
X0.1417Y2.0193
X0.1417Y1.9193
X0.1417Y1.8193
X0.1417Y1.7193
X0.1417Y1.6193
X0.1417Y1.5193
X0.2689Y3.4728
X0.2689Y3.3728
X0.2689Y3.2728
X0.2689Y3.1728
X0.2689Y3.0728
X0.2689Y2.9728
X0.2689Y2.8728
X0.2689Y2.7728
X0.2689Y2.6728
X0.2689Y2.5728
X0.2689Y2.4728
X0.2689Y2.3728
X0.2711Y2.2752
X0.2887Y2.1515
X0.3689Y3.4728
X0.3689Y3.3728
X0.3689Y3.2728
X0.3689Y3.1728
X0.3689Y3.0728
X0.3689Y2.9728
X0.3689Y2.8728
X0.3689Y2.7728
X0.3689Y2.6728
X0.3689Y2.5728
X0.3689Y2.4728
X0.3689Y2.3728
X0.3948Y2.2576
X0.4689Y3.4728
X0.4689Y3.3728
X0.4689Y3.2728
X0.4689Y3.1728
X0.4689Y3.0728
X0.4689Y2.9728
X0.4689Y2.8728
X0.4689Y2.7728
X0.4689Y2.6728
X0.4689Y2.5728
X0.4689Y2.4728
X0.4689Y2.3728
X0.5362Y1.904
X0.5473Y2.2754
X0.565Y2.1517
X0.5689Y3.4728
X0.5689Y3.3728
X0.5689Y3.2728
X0.5689Y3.1728
X0.5689Y3.0728
X0.5689Y2.9728
X0.5689Y2.8728
X0.5689Y2.7728
X0.5689Y2.6728
X0.5689Y2.5728
X0.5689Y2.4728
X0.5689Y2.3728
X0.6106Y3.865
X0.6106Y3.765
X0.6106Y3.665
X0.6106Y3.565
X0.6423Y2.0101
X0.66Y1.8863
X0.6689Y3.4728
X0.6689Y3.3728
X0.6689Y3.2728
X0.6689Y3.1728
X0.6689Y3.0728
X0.6689Y2.9728
X0.6689Y2.8728
X0.6689Y2.7728
X0.6689Y2.6728
X0.6689Y2.5728
X0.6689Y2.4728
X0.6689Y2.3728
X0.671Y2.2577
X0.7106Y3.865
X0.7106Y3.765
X0.7106Y3.665
X0.7106Y3.565
X0.7689Y3.4728
X0.7689Y3.3728
X0.7689Y3.2728
X0.7689Y3.1728
X0.7689Y3.0728
X0.7689Y2.9728
X0.7689Y2.8728
X0.7689Y2.7728
X0.7689Y2.6728
X0.7689Y2.5728
X0.7689Y2.4728
X0.7689Y2.3728
X0.7878Y1.6677
X0.7878Y1.5677
X0.7878Y1.4677
X0.7878Y1.3677
X0.7878Y1.2677
X0.7878Y1.1677
X0.7878Y1.0677
X0.7878Y0.9677
X0.7878Y0.8677
X0.7878Y0.7677
X0.7878Y0.6677
X0.7878Y0.5677
X0.7878Y0.4677
X0.7878Y0.3677
X0.7878Y0.2677
X0.8106Y3.865
X0.8106Y3.765
X0.8106Y3.665
X0.8106Y3.565
X0.8125Y1.9042
X0.9106Y3.865
X0.9106Y3.765
X0.9106Y3.665
X0.9106Y3.565
X0.9185Y2.0102
X0.9362Y1.8865
X1.0106Y3.865
X1.0106Y3.765
X1.0106Y3.665
X1.0106Y3.565
X1.1106Y3.865
X1.1106Y3.765
X1.1106Y3.665
X1.1106Y3.565
X1.1339Y2.0193
X1.1339Y1.9193
X1.2106Y3.865
X1.2106Y3.765
X1.2106Y3.665
X1.2106Y3.565
X1.2339Y2.0193
X1.2339Y1.9193
X1.2691Y2.2795
X1.2691Y2.1795
X1.3106Y3.865
X1.3106Y3.765
X1.3106Y3.665
X1.3106Y3.565
X1.3339Y2.0193
X1.3339Y1.9193
X1.3878Y1.6677
X1.3878Y1.5677
X1.3878Y1.4677
X1.3878Y1.3677
X1.3878Y1.2677
X1.3878Y1.1677
X1.3878Y1.0677
X1.3878Y0.9677
X1.3878Y0.8677
X1.3878Y0.7677
X1.3878Y0.6677
X1.3878Y0.5677
X1.3878Y0.4677
X1.3878Y0.3677
X1.3878Y0.2677
X1.4106Y3.865
X1.4106Y3.765
X1.4106Y3.665
X1.4106Y3.565
X1.4339Y2.0193
X1.4339Y1.9193
X1.5106Y3.865
X1.5106Y3.765
X1.5106Y3.665
X1.5106Y3.565
X1.5217Y1.2677
X1.5217Y1.1677
X1.5217Y1.0677
X1.5217Y0.9677
X1.5217Y0.8677
X1.5217Y0.7677
X1.5217Y0.5157
X1.5217Y0.4157
X1.522Y1.6614
X1.522Y1.5614
X1.522Y1.4614
X1.5339Y2.0193
X1.5339Y1.9193
X1.6106Y3.865
X1.6106Y3.765
X1.6106Y3.665
X1.6106Y3.565
X1.6217Y1.2677
X1.6217Y1.1677
X1.6217Y1.0677
X1.6217Y0.9677
X1.6217Y0.8677
X1.6217Y0.7677
X1.6217Y0.5157
X1.6217Y0.4157
X1.622Y1.6614
X1.622Y1.5614
X1.622Y1.4614
X1.7106Y3.865
X1.7106Y3.765
X1.7106Y3.665
X1.7106Y3.565
X1.7622Y1.6618
X1.7622Y1.5618
X1.7622Y1.4618
X1.7622Y1.3618
X1.7622Y1.2618
X1.7622Y1.1618
X1.7622Y1.0618
X1.7622Y0.9618
X1.7622Y0.8618
X1.7622Y0.7618
X1.7689Y3.4728
X1.7689Y3.3728
X1.7689Y3.2728
X1.7689Y3.1728
X1.7689Y3.0728
X1.7689Y2.9728
X1.7689Y2.8728
X1.7689Y2.7728
X1.7689Y2.6728
X1.7689Y2.5728
X1.7689Y2.4728
X1.7689Y2.3728
X1.8106Y3.865
X1.8106Y3.765
X1.8106Y3.665
X1.8106Y3.565
X1.8622Y1.6618
X1.8622Y1.5618
X1.8622Y1.4618
X1.8622Y1.3618
X1.8622Y1.2618
X1.8622Y1.1618
X1.8622Y1.0618
X1.8622Y0.9618
X1.8622Y0.8618
X1.8622Y0.7618
X1.8689Y3.4728
X1.8689Y3.3728
X1.8689Y3.2728
X1.8689Y3.1728
X1.8689Y3.0728
X1.8689Y2.9728
X1.8689Y2.8728
X1.8689Y2.7728
X1.8689Y2.6728
X1.8689Y2.5728
X1.8689Y2.4728
X1.8689Y2.3728
X1.8691Y2.2795
X1.8691Y2.1795
X1.9106Y3.865
X1.9106Y3.765
X1.9106Y3.665
X1.9106Y3.565
X1.9685Y1.9432
X1.9685Y1.8432
X1.9685Y1.7432
X1.9685Y1.6432
X1.9685Y0.8432
X1.9685Y0.7432
X1.9685Y0.6432
X1.9685Y0.5432
X1.9839Y2.2772
X1.9839Y2.1772
X1.9843Y3.4728
X1.9843Y3.3728
X1.9843Y3.2728
X1.9843Y3.1728
X1.9843Y3.0728
X1.9843Y2.9728
X1.9843Y2.8728
X1.9843Y2.7728
X1.9843Y2.6728
X1.9843Y2.5728
X1.9843Y2.4728
X1.9843Y2.3728
X2.0106Y3.865
X2.0106Y3.765
X2.0106Y3.665
X2.0106Y3.565
X2.0685Y1.9432
X2.0685Y1.8432
X2.0685Y1.7432
X2.0685Y1.6432
X2.0685Y0.8432
X2.0685Y0.7432
X2.0685Y0.6432
X2.0685Y0.5432
X2.0843Y3.4728
X2.0843Y3.3728
X2.0843Y3.2728
X2.0843Y3.1728
X2.0843Y3.0728
X2.0843Y2.9728
X2.0843Y2.8728
X2.0843Y2.7728
X2.0843Y2.6728
X2.0843Y2.5728
X2.0843Y2.4728
X2.0843Y2.3728
X2.1106Y3.865
X2.1106Y3.765
X2.1106Y3.665
X2.1106Y3.565
X2.1685Y1.9432
X2.1685Y1.8432
X2.1685Y1.7432
X2.1685Y1.6432
X2.1685Y0.8432
X2.1685Y0.7432
X2.1685Y0.6432
X2.1685Y0.5432
X2.1843Y3.4728
X2.1843Y3.3728
X2.1843Y3.2728
X2.1843Y3.1728
X2.1843Y3.0728
X2.1843Y2.9728
X2.1843Y2.8728
X2.1843Y2.7728
X2.1843Y2.6728
X2.1843Y2.5728
X2.1843Y2.4728
X2.1843Y2.3728
X2.2685Y1.9432
X2.2685Y1.8432
X2.2685Y1.7432
X2.2685Y1.6432
X2.2685Y0.8432
X2.2685Y0.7432
X2.2685Y0.6432
X2.2685Y0.5432
X2.2843Y3.4728
X2.2843Y3.3728
X2.2843Y3.2728
X2.2843Y3.1728
X2.2843Y3.0728
X2.2843Y2.9728
X2.2843Y2.8728
X2.2843Y2.7728
X2.2843Y2.6728
X2.2843Y2.5728
X2.2843Y2.4728
X2.2843Y2.3728
X2.3685Y1.9432
X2.3685Y1.8432
X2.3685Y1.7432
X2.3685Y1.6432
X2.3685Y0.8432
X2.3685Y0.7432
X2.3685Y0.6432
X2.3685Y0.5432
X2.3843Y3.4728
X2.3843Y3.3728
X2.3843Y3.2728
X2.3843Y3.1728
X2.3843Y3.0728
X2.3843Y2.9728
X2.3843Y2.8728
X2.3843Y2.7728
X2.3843Y2.6728
X2.3843Y2.5728
X2.3843Y2.4728
X2.3843Y2.3728
X2.4685Y1.9432
X2.4685Y1.8432
X2.4685Y1.7432
X2.4685Y1.6432
X2.4685Y0.8432
X2.4685Y0.7432
X2.4685Y0.6432
X2.4685Y0.5432
X2.4843Y3.4728
X2.4843Y3.3728
X2.4843Y3.2728
X2.4843Y3.1728
X2.4843Y3.0728
X2.4843Y2.9728
X2.4843Y2.8728
X2.4843Y2.7728
X2.4843Y2.6728
X2.4843Y2.5728
X2.4843Y2.4728
X2.4843Y2.3728
X2.5685Y1.9432
X2.5685Y1.8432
X2.5685Y1.7432
X2.5685Y1.6432
X2.5685Y0.8432
X2.5685Y0.7432
X2.5685Y0.6432
X2.5685Y0.5432
X2.5839Y2.2772
X2.5839Y2.1772
X2.5843Y3.4728
X2.5843Y3.3728
X2.5843Y3.2728
X2.5843Y3.1728
X2.5843Y3.0728
X2.5843Y2.9728
X2.5843Y2.8728
X2.5843Y2.7728
X2.5843Y2.6728
X2.5843Y2.5728
X2.5843Y2.4728
X2.5843Y2.3728
X2.6685Y1.9432
X2.6685Y1.8432
X2.6685Y1.7432
X2.6685Y1.6432
X2.6685Y0.8432
X2.6685Y0.7432
X2.6685Y0.6432
X2.6685Y0.5432
X2.6843Y3.4728
X2.6843Y3.3728
X2.6843Y3.2728
X2.6843Y3.1728
X2.6843Y3.0728
X2.6843Y2.9728
X2.6843Y2.8728
X2.6843Y2.7728
X2.6843Y2.6728
X2.6843Y2.5728
X2.6843Y2.4728
X2.6843Y2.3728
M30
