%TF.GenerationSoftware,KiCad,Pcbnew,9.0.1*%
%TF.CreationDate,2026-01-25T19:31:22-05:00*%
%TF.ProjectId,BREAD_Slice,42524541-445f-4536-9c69-63652e6b6963,rev?*%
%TF.SameCoordinates,PX74eba40PY8552dc0*%
%TF.FileFunction,Soldermask,Bot*%
%TF.FilePolarity,Negative*%
%FSLAX46Y46*%
G04 Gerber Fmt 4.6, Leading zero omitted, Abs format (unit mm)*
G04 Created by KiCad (PCBNEW 9.0.1) date 2026-01-25 19:31:22*
%MOMM*%
%LPD*%
G01*
G04 APERTURE LIST*
G04 Aperture macros list*
%AMRoundRect*
0 Rectangle with rounded corners*
0 $1 Rounding radius*
0 $2 $3 $4 $5 $6 $7 $8 $9 X,Y pos of 4 corners*
0 Add a 4 corners polygon primitive as box body*
4,1,4,$2,$3,$4,$5,$6,$7,$8,$9,$2,$3,0*
0 Add four circle primitives for the rounded corners*
1,1,$1+$1,$2,$3*
1,1,$1+$1,$4,$5*
1,1,$1+$1,$6,$7*
1,1,$1+$1,$8,$9*
0 Add four rect primitives between the rounded corners*
20,1,$1+$1,$2,$3,$4,$5,0*
20,1,$1+$1,$4,$5,$6,$7,0*
20,1,$1+$1,$6,$7,$8,$9,0*
20,1,$1+$1,$8,$9,$2,$3,0*%
G04 Aperture macros list end*
%ADD10C,2.160000*%
%ADD11RoundRect,0.050000X-0.800000X-0.800000X0.800000X-0.800000X0.800000X0.800000X-0.800000X0.800000X0*%
%ADD12O,2.000000X1.500000*%
%ADD13RoundRect,0.050000X0.800000X0.800000X-0.800000X0.800000X-0.800000X-0.800000X0.800000X-0.800000X0*%
%ADD14O,1.400000X2.000000*%
%ADD15O,1.500000X1.800000*%
%ADD16RoundRect,0.050000X-0.850000X-0.850000X0.850000X-0.850000X0.850000X0.850000X-0.850000X0.850000X0*%
%ADD17C,5.100000*%
%ADD18O,1.700000X1.700000*%
%ADD19C,1.800000*%
%ADD20RoundRect,0.050000X0.850000X-0.850000X0.850000X0.850000X-0.850000X0.850000X-0.850000X-0.850000X0*%
%ADD21RoundRect,0.271739X0.353261X0.678261X-0.353261X0.678261X-0.353261X-0.678261X0.353261X-0.678261X0*%
%ADD22RoundRect,0.175000X-0.537500X-0.175000X0.537500X-0.175000X0.537500X0.175000X-0.537500X0.175000X0*%
%ADD23RoundRect,0.271739X-0.353261X-0.678261X0.353261X-0.678261X0.353261X0.678261X-0.353261X0.678261X0*%
%ADD24RoundRect,0.270000X-0.405000X-1.105000X0.405000X-1.105000X0.405000X1.105000X-0.405000X1.105000X0*%
%TA.AperFunction,Profile*%
%ADD25C,0.050000*%
%TD*%
G04 APERTURE END LIST*
D10*
%TO.C,*%
X13620267Y48361797D03*
X16763357Y47912784D03*
X16314344Y51055874D03*
X10028165Y57342053D03*
X6885075Y57791066D03*
X7334088Y54647976D03*
%TD*%
%TO.C,*%
X20636431Y48366243D03*
X23779521Y47917230D03*
X23330508Y51060320D03*
X17044329Y57346499D03*
X13901239Y57795512D03*
X14350252Y54652422D03*
%TD*%
D11*
%TO.C,*%
X16990000Y88210000D03*
D12*
X19530000Y88210000D03*
X44930000Y88210000D03*
D11*
X47470000Y88210000D03*
%TD*%
%TO.C,*%
X16990000Y78050000D03*
D12*
X19530000Y78050000D03*
X44930000Y78050000D03*
D11*
X47470000Y78050000D03*
%TD*%
%TO.C,*%
X16990000Y60270000D03*
D12*
X19530000Y60270000D03*
X44930000Y60270000D03*
D11*
X47470000Y60270000D03*
%TD*%
%TO.C,*%
X16990000Y72970000D03*
D12*
X19530000Y72970000D03*
X44930000Y72970000D03*
D11*
X47470000Y72970000D03*
%TD*%
%TO.C,*%
X16990000Y80590000D03*
D12*
X19530000Y80590000D03*
X44930000Y80590000D03*
D11*
X47470000Y80590000D03*
%TD*%
%TO.C,*%
X16990000Y85670000D03*
D12*
X19530000Y85670000D03*
X44930000Y85670000D03*
D11*
X47470000Y85670000D03*
%TD*%
%TO.C,*%
X16990000Y83130000D03*
D12*
X19530000Y83130000D03*
X44930000Y83130000D03*
D11*
X47470000Y83130000D03*
%TD*%
%TO.C,*%
X16990000Y62810000D03*
D12*
X19530000Y62810000D03*
X44930000Y62810000D03*
D11*
X47470000Y62810000D03*
%TD*%
%TO.C,*%
X16990000Y70430000D03*
D12*
X19530000Y70430000D03*
X44930000Y70430000D03*
D11*
X47470000Y70430000D03*
%TD*%
%TO.C,*%
X16990000Y67890000D03*
D12*
X19530000Y67890000D03*
X44930000Y67890000D03*
D11*
X47470000Y67890000D03*
%TD*%
%TO.C,*%
X16990000Y65350000D03*
D12*
X19530000Y65350000D03*
X44930000Y65350000D03*
D11*
X47470000Y65350000D03*
%TD*%
%TO.C,*%
X16990000Y75510000D03*
D12*
X19530000Y75510000D03*
X44930000Y75510000D03*
D11*
X47470000Y75510000D03*
%TD*%
D13*
%TO.C,*%
X47475000Y55360000D03*
X32235000Y55360000D03*
%TD*%
%TO.C,*%
X47475000Y57900000D03*
X32235000Y57900000D03*
%TD*%
%TO.C,*%
X65630000Y57840000D03*
X50390000Y57840000D03*
%TD*%
%TO.C,*%
X65630000Y55300000D03*
X50390000Y55300000D03*
%TD*%
D14*
%TO.C,*%
X65240000Y49356700D03*
X65240000Y46816700D03*
X65240000Y44276700D03*
X65240000Y41736700D03*
D15*
X65240000Y21416700D03*
X65240000Y18876700D03*
X65240000Y16336700D03*
X65240000Y13796700D03*
%TD*%
D14*
%TO.C,*%
X55080000Y49356700D03*
X55080000Y46816700D03*
X55080000Y44276700D03*
X55080000Y41736700D03*
D15*
X55080000Y21416700D03*
X55080000Y18876700D03*
X55080000Y16336700D03*
X55080000Y13796700D03*
%TD*%
D14*
%TO.C,*%
X60160000Y49356700D03*
X60160000Y46816700D03*
X60160000Y44276700D03*
X60160000Y41736700D03*
D15*
X60160000Y21416700D03*
X60160000Y18876700D03*
X60160000Y16336700D03*
X60160000Y13796700D03*
%TD*%
D14*
%TO.C,*%
X50000000Y49356700D03*
X50000000Y46816700D03*
X50000000Y44276700D03*
X50000000Y41736700D03*
D15*
X50000000Y21416700D03*
X50000000Y18876700D03*
X50000000Y16336700D03*
X50000000Y13796700D03*
%TD*%
D14*
%TO.C,*%
X62700000Y49356700D03*
X62700000Y46816700D03*
X62700000Y44276700D03*
X62700000Y41736700D03*
D15*
X62700000Y21416700D03*
X62700000Y18876700D03*
X62700000Y16336700D03*
X62700000Y13796700D03*
%TD*%
D14*
%TO.C,*%
X57620000Y49356700D03*
X57620000Y46816700D03*
X57620000Y44276700D03*
X57620000Y41736700D03*
D15*
X57620000Y21416700D03*
X57620000Y18876700D03*
X57620000Y16336700D03*
X57620000Y13796700D03*
%TD*%
D14*
%TO.C,*%
X67780000Y49356700D03*
X67780000Y46816700D03*
X67780000Y44276700D03*
X67780000Y41736700D03*
D15*
X67780000Y21416700D03*
X67780000Y18876700D03*
X67780000Y16336700D03*
X67780000Y13796700D03*
%TD*%
D14*
%TO.C,*%
X52540000Y49356700D03*
X52540000Y46816700D03*
X52540000Y44276700D03*
X52540000Y41736700D03*
D15*
X52540000Y21416700D03*
X52540000Y18876700D03*
X52540000Y16336700D03*
X52540000Y13796700D03*
%TD*%
D16*
%TO.C,*%
X18050000Y95630000D03*
X20590000Y95630000D03*
X20590000Y93090000D03*
X18050000Y93090000D03*
X15510000Y93090000D03*
X15510000Y95630000D03*
X15510000Y98170000D03*
X18050000Y98170000D03*
X20590000Y98170000D03*
X23130000Y98170000D03*
X23130000Y95630000D03*
X23130000Y93090000D03*
X23130000Y90550000D03*
X20590000Y90550000D03*
X18050000Y90550000D03*
X15510000Y90550000D03*
%TD*%
%TO.C,*%
X52940000Y85670000D03*
X55480000Y85670000D03*
X55480000Y83130000D03*
X52940000Y83130000D03*
X50400000Y83130000D03*
X50400000Y85670000D03*
X50400000Y88210000D03*
X52940000Y88210000D03*
X55480000Y88210000D03*
X58020000Y88210000D03*
X58020000Y85670000D03*
X58020000Y83130000D03*
X58020000Y80590000D03*
X55480000Y80590000D03*
X52940000Y80590000D03*
X50400000Y80590000D03*
%TD*%
%TO.C,*%
X9370000Y85670000D03*
X11910000Y85670000D03*
X11910000Y83130000D03*
X9370000Y83130000D03*
X6830000Y83130000D03*
X6830000Y85670000D03*
X6830000Y88210000D03*
X9370000Y88210000D03*
X11910000Y88210000D03*
X14450000Y88210000D03*
X14450000Y85670000D03*
X14450000Y83130000D03*
X14450000Y80590000D03*
X11910000Y80590000D03*
X9370000Y80590000D03*
X6830000Y80590000D03*
%TD*%
%TO.C,*%
X63100000Y85670000D03*
X65640000Y85670000D03*
X65640000Y83130000D03*
X63100000Y83130000D03*
X60560000Y83130000D03*
X60560000Y85670000D03*
X60560000Y88210000D03*
X63100000Y88210000D03*
X65640000Y88210000D03*
X68180000Y88210000D03*
X68180000Y85670000D03*
X68180000Y83130000D03*
X68180000Y80590000D03*
X65640000Y80590000D03*
X63100000Y80590000D03*
X60560000Y80590000D03*
%TD*%
%TO.C,*%
X63100000Y75510000D03*
X65640000Y75510000D03*
X65640000Y72970000D03*
X63100000Y72970000D03*
X60560000Y72970000D03*
X60560000Y75510000D03*
X60560000Y78050000D03*
X63100000Y78050000D03*
X65640000Y78050000D03*
X68180000Y78050000D03*
X68180000Y75510000D03*
X68180000Y72970000D03*
X68180000Y70430000D03*
X65640000Y70430000D03*
X63100000Y70430000D03*
X60560000Y70430000D03*
%TD*%
%TO.C,*%
X63100000Y65350000D03*
X65640000Y65350000D03*
X65640000Y62810000D03*
X63100000Y62810000D03*
X60560000Y62810000D03*
X60560000Y65350000D03*
X60560000Y67890000D03*
X63100000Y67890000D03*
X65640000Y67890000D03*
X68180000Y67890000D03*
X68180000Y65350000D03*
X68180000Y62810000D03*
X68180000Y60270000D03*
X65640000Y60270000D03*
X63100000Y60270000D03*
X60560000Y60270000D03*
%TD*%
%TO.C,*%
X52940000Y75510000D03*
X55480000Y75510000D03*
X55480000Y72970000D03*
X52940000Y72970000D03*
X50400000Y72970000D03*
X50400000Y75510000D03*
X50400000Y78050000D03*
X52940000Y78050000D03*
X55480000Y78050000D03*
X58020000Y78050000D03*
X58020000Y75510000D03*
X58020000Y72970000D03*
X58020000Y70430000D03*
X55480000Y70430000D03*
X52940000Y70430000D03*
X50400000Y70430000D03*
%TD*%
%TO.C,*%
X48530000Y95630000D03*
X51070000Y95630000D03*
X51070000Y93090000D03*
X48530000Y93090000D03*
X45990000Y93090000D03*
X45990000Y95630000D03*
X45990000Y98170000D03*
X48530000Y98170000D03*
X51070000Y98170000D03*
X53610000Y98170000D03*
X53610000Y95630000D03*
X53610000Y93090000D03*
X53610000Y90550000D03*
X51070000Y90550000D03*
X48530000Y90550000D03*
X45990000Y90550000D03*
%TD*%
%TO.C,*%
X9370000Y65350000D03*
X11910000Y65350000D03*
X11910000Y62810000D03*
X9370000Y62810000D03*
X6830000Y62810000D03*
X6830000Y65350000D03*
X6830000Y67890000D03*
X9370000Y67890000D03*
X11910000Y67890000D03*
X14450000Y67890000D03*
X14450000Y65350000D03*
X14450000Y62810000D03*
X14450000Y60270000D03*
X11910000Y60270000D03*
X9370000Y60270000D03*
X6830000Y60270000D03*
%TD*%
%TO.C,*%
X38370000Y95630000D03*
X40910000Y95630000D03*
X40910000Y93090000D03*
X38370000Y93090000D03*
X35830000Y93090000D03*
X35830000Y95630000D03*
X35830000Y98170000D03*
X38370000Y98170000D03*
X40910000Y98170000D03*
X43450000Y98170000D03*
X43450000Y95630000D03*
X43450000Y93090000D03*
X43450000Y90550000D03*
X40910000Y90550000D03*
X38370000Y90550000D03*
X35830000Y90550000D03*
%TD*%
%TO.C,*%
X28210000Y95630000D03*
X30750000Y95630000D03*
X30750000Y93090000D03*
X28210000Y93090000D03*
X25670000Y93090000D03*
X25670000Y95630000D03*
X25670000Y98170000D03*
X28210000Y98170000D03*
X30750000Y98170000D03*
X33290000Y98170000D03*
X33290000Y95630000D03*
X33290000Y93090000D03*
X33290000Y90550000D03*
X30750000Y90550000D03*
X28210000Y90550000D03*
X25670000Y90550000D03*
%TD*%
%TO.C,*%
X9370000Y75510000D03*
X11910000Y75510000D03*
X11910000Y72970000D03*
X9370000Y72970000D03*
X6830000Y72970000D03*
X6830000Y75510000D03*
X6830000Y78050000D03*
X9370000Y78050000D03*
X11910000Y78050000D03*
X14450000Y78050000D03*
X14450000Y75510000D03*
X14450000Y72970000D03*
X14450000Y70430000D03*
X11910000Y70430000D03*
X9370000Y70430000D03*
X6830000Y70430000D03*
%TD*%
%TO.C,*%
X52940000Y65350000D03*
X55480000Y65350000D03*
X55480000Y62810000D03*
X52940000Y62810000D03*
X50400000Y62810000D03*
X50400000Y65350000D03*
X50400000Y67890000D03*
X52940000Y67890000D03*
X55480000Y67890000D03*
X58020000Y67890000D03*
X58020000Y65350000D03*
X58020000Y62810000D03*
X58020000Y60270000D03*
X55480000Y60270000D03*
X52940000Y60270000D03*
X50400000Y60270000D03*
%TD*%
D17*
%TO.C,H1*%
X5000000Y95000000D03*
%TD*%
%TO.C,H3*%
X65000000Y95000000D03*
%TD*%
%TO.C,H2*%
X5000000Y5000000D03*
%TD*%
%TO.C,H4*%
X65000000Y5000000D03*
%TD*%
D11*
%TO.C,A1*%
X20010000Y42360000D03*
D18*
X20010000Y39820000D03*
X20010000Y37280000D03*
X20010000Y34740000D03*
X20010000Y32200000D03*
X20010000Y29660000D03*
X20010000Y27120000D03*
X20010000Y24580000D03*
X20010000Y22040000D03*
X20010000Y19500000D03*
X20010000Y16960000D03*
X20010000Y14420000D03*
X20010000Y11880000D03*
X20010000Y9340000D03*
X20010000Y6800000D03*
X35250000Y6800000D03*
X35250000Y9340000D03*
X35250000Y11880000D03*
X35250000Y14420000D03*
X35250000Y16960000D03*
X35250000Y19500000D03*
X35250000Y22040000D03*
X35250000Y24580000D03*
X35250000Y27120000D03*
X35250000Y29660000D03*
X35250000Y32200000D03*
X35250000Y34740000D03*
X35250000Y37280000D03*
X35250000Y39820000D03*
X35250000Y42360000D03*
%TD*%
D16*
%TO.C,J1*%
X3600000Y61450000D03*
D19*
X3600000Y58910000D03*
X3600000Y56370000D03*
X3600000Y53830000D03*
X3600000Y51290000D03*
X3600000Y48750000D03*
X3600000Y46210000D03*
X3600000Y43670000D03*
X3600000Y41130000D03*
X3600000Y38590000D03*
%TD*%
D16*
%TO.C,REF\u002A\u002A*%
X38660000Y42200000D03*
D19*
X41200000Y42200000D03*
X38660000Y39660000D03*
X41200000Y39660000D03*
X38660000Y37120000D03*
X41200000Y37120000D03*
%TD*%
D20*
%TO.C,REF\u002A\u002A*%
X28800000Y48750000D03*
D19*
X28800000Y51290000D03*
X31340000Y48750000D03*
X31340000Y51290000D03*
X33880000Y48750000D03*
X33880000Y51290000D03*
X36420000Y48750000D03*
X36420000Y51290000D03*
X38960000Y48750000D03*
X38960000Y51290000D03*
%TD*%
D16*
%TO.C,REF\u002A\u002A*%
X44760000Y42210000D03*
D19*
X47300000Y42210000D03*
X44760000Y39670000D03*
X47300000Y39670000D03*
X44760000Y37130000D03*
X47300000Y37130000D03*
X44760000Y34590000D03*
X47300000Y34590000D03*
X44760000Y32050000D03*
X47300000Y32050000D03*
X44760000Y29510000D03*
X47300000Y29510000D03*
X44760000Y26970000D03*
X47300000Y26970000D03*
X44760000Y24430000D03*
X47300000Y24430000D03*
X44760000Y21890000D03*
X47300000Y21890000D03*
X44760000Y19350000D03*
X47300000Y19350000D03*
%TD*%
D16*
%TO.C,REF\u002A\u002A*%
X38650000Y13100000D03*
D19*
X41190000Y13100000D03*
X38650000Y10560000D03*
X41190000Y10560000D03*
%TD*%
D16*
%TO.C,REF\u002A\u002A*%
X38650000Y32200000D03*
D19*
X41190000Y32200000D03*
X38650000Y29660000D03*
X41190000Y29660000D03*
X38650000Y27120000D03*
X41190000Y27120000D03*
X38650000Y24580000D03*
X41190000Y24580000D03*
X38650000Y22040000D03*
X41190000Y22040000D03*
X38650000Y19500000D03*
X41190000Y19500000D03*
%TD*%
D21*
%TO.C,C1*%
X7675000Y20300000D03*
X4725000Y20300000D03*
%TD*%
D22*
%TO.C,U1*%
X5012500Y16095000D03*
X5012500Y17045000D03*
X5012500Y17995000D03*
X7287500Y17995000D03*
X7287500Y17045000D03*
X7287500Y16095000D03*
%TD*%
D21*
%TO.C,C2*%
X10025000Y13545000D03*
X7075000Y13545000D03*
%TD*%
D23*
%TO.C,C3*%
X9775000Y20345000D03*
X12725000Y20345000D03*
%TD*%
%TO.C,C4*%
X9775000Y23345000D03*
X12725000Y23345000D03*
%TD*%
D24*
%TO.C,L1*%
X9850000Y17045000D03*
X12650000Y17045000D03*
%TD*%
D25*
X70000000Y95000000D02*
X70000000Y45000000D01*
X65000000Y100000000D02*
G75*
G02*
X70000000Y95000000I0J-5000000D01*
G01*
X70000000Y5000000D02*
G75*
G02*
X65000000Y0I-5000000J0D01*
G01*
X30000000Y100000000D02*
X65000000Y100000000D01*
X0Y95000000D02*
G75*
G02*
X5000000Y100000000I5000000J0D01*
G01*
X70000000Y45000000D02*
X70000000Y5000000D01*
X0Y5000000D02*
X0Y95000000D01*
X5000000Y100000000D02*
X30000000Y100000000D01*
X5000000Y0D02*
G75*
G02*
X0Y5000000I0J5000000D01*
G01*
X37588000Y0D02*
X65000000Y0D01*
X5000000Y0D02*
X37588000Y0D01*
M02*
